<?xml version="1.0" encoding="utf-8"?>
<!-- Generator: Adobe Illustrator 24.3.0, SVG Export Plug-In . SVG Version: 6.00 Build 0)  -->
<svg version="1.1" id="Слой_1" xmlns="http://www.w3.org/2000/svg" xmlns:xlink="http://www.w3.org/1999/xlink" x="0px" y="0px"
	 viewBox="0 0 841.9 595.3" style="enable-background:new 0 0 841.9 595.3;" xml:space="preserve">
<path d="M596.8,366.6c-59.9,57.9-239.3,13.5-326.9,26.1c-0.3-0.8-0.6-1.6-0.8-2.4c9.4-3.8,18.7-7.5,29.5-11.8
	c-19.4-19.1-36.2-39-43.3-66.2c119.8-8.6,237.9-19.9,345.2-83c-7.3,57.5-26.4,107.8-69.7,148.7C554.5,378.4,574.5,373.3,596.8,366.6
	z"/>
<path d="M442.4,249.7c-32.1,14.3-56.3,40.6-92.2,36.1c-0.4-3.1-0.7-5.9-1-8.8c-11.5,1.4-22.6,2.8-34.8,4.2
	c0.6-7.2,1.1-12.3,1.6-18.2c-8.5,0.8-16.2,1.5-24.8,2.3c6.9-47.4,7.7-92.4-20.5-133.5c7.3-6.1,12.9-10.1,21.4-14.9
	c-13-15.5,17.8-22.5,27-30.2c-1.9-3.2-3.5-6-5.7-9.6c53.7-59.9,163.3-54.7,185.8,32.6c13.1,43.8,7.8,88.6-2.3,132.3
	c-4.1,18.2-10.6,24.5-29.2,27.5c-18.9,2-35.8,5-54.9,7.9c10.6-11.6,28.2-12.8,42.6-17.4c22.3-4.8,25.9-7.1,30.1-29.1
	c7.2-37.8,9.7-75.7-1-113.3c-13.9-48.9-57.8-73.6-106.9-59.8c-14.3,6.2-46.3,10.9-35.8,32.8c9.5,24.1,20,48,27.1,72.9
	c6.4,29.7,2.9,62,6.5,92.4c1.1,10.3,4.9,11,14.4,7.3C407.5,257.9,423.3,248.8,442.4,249.7z"/>
<path d="M461,147.8c-2.7-50.1-70.8-31.8-69.5,10C393.6,206.9,462.4,190.6,461,147.8z M427.6,129.5c4,3,7.6,5.7,11.1,8.3
	c-0.5,0.8-1.1,1.6-1.6,2.5c-2.3-0.8-4.5-1.6-6.8-2.3c-0.8,0.4-1.5,0.8-2.3,1.3c8,18.3,21.8,18.9-1.3,34.8
	c-3.9-4.1-13.6-3.5-10.8-14.5c2.7,2.5,4.8,4.4,6.8,6.3c1-0.4,2-0.7,3-1.1C422.5,144.4,402.7,146.9,427.6,129.5z"/>
<path d="M500.4,483.8c9.7-9.3,13.4-33.4,30.7-26.8c-28.1,40.1-24.7,27.5,1.4,66.9c-18.1,6.2-22-18.1-32.2-27.9
	c-0.8,0.2-1.5,0.4-2.3,0.7c0,9.1,0,18.1,0,27.9c-4.2,0.2-7.1,0.4-11.2,0.5c0-10.1,0-19.6,0-29c-0.8-0.4-1.6-0.7-2.5-1.1
	c-10.6,10-14.4,35.2-32.9,29c25.4-38.6,29.5-27.7,1.6-66.9c17.4-6.6,21.3,18.2,31.1,27.6c0.8-0.2,1.6-0.3,2.4-0.5
	c1.8-6.6-4.9-30.7,6-28.2c8.8,5.1,4.1,18.3,5.1,26.8C498.7,483.1,499.5,483.4,500.4,483.8z"/>
<path d="M281.5,409.4c68.7-6.4,137.5,0.2,206.7,0.8c-66.3,22.9-138.7,7.8-206.4,1.6C281.7,411,281.6,410.2,281.5,409.4z"/>
<path d="M426.2,524.6c-4.3,0-7,0-10.8,0c0-16.2,0-32,0-47.9c-0.8-0.2-1.5-0.5-2.3-0.7c-8.1,13.6-17.3,26.7-24.5,40.7
	c-3.8,8-9.3,9.8-18.6,7.3c0.1-19.4-0.3-39.3,0.1-58.8c0.1-3.7-2.4-9.4,5-9.6c12.5-2.1,0.5,41,8,49.7c8.4-14.4,17.6-28.4,25.5-43
	c5.3-11.2,18.2-8.4,17.4,4.1C426.4,485.6,426.2,504.7,426.2,524.6z"/>
<path d="M42.3,464.4c-9.3,0-17.5,0-26.9,0c0,19.9,0,39.6,0,60.1c-4.4,0.2-7.6,0.4-12.4,0.6c-0.1-21.5,0.2-41.4-0.1-62.5
	c-0.1-5.2,1.9-7.2,7.1-7.1c61.6-0.8,40.2-4.7,43.9,69c-4.2,0-7.4,0-11.7,0C42.3,504.3,42.3,484.6,42.3,464.4z"/>
<path d="M570,463.8c0,7.3,0,13.4,0,20.5c15-0.5,33.8,3.2,32.7,20.8c0.4,22.7-28.2,21.7-44.6,18.9c0-22.4,0-44.9,0-68.4
	c10.8,1.7,34.9-4.6,39.8,4.7C590.7,467.3,580.3,462.5,570,463.8z M569.5,494.5c1.1,6.1-3.8,23,5.3,21.9
	C596.6,518.9,597.2,487.9,569.5,494.5z"/>
<path d="M719.1,484.2c10.4,0,19.2,0,29,0c0-9.5,0-18.3,0-27.4c7.7-2.3,11.7-1.6,11.6,7.3c-0.4,19.8-0.1,39.6-0.1,60.1
	c-3.9,0-7.1,0-11.2,0c0-9.9,0-19.7,0-30.1c-10,0-19,0-29.2,0c0,10.1,0,19.9,0,30.3c-4.3,0-7.5,0-11.9,0c0-21.6-0.1-42.9,0.3-64.2
	c0-1.6,4.1-4.4,6.1-4.3C723.7,460.5,717.6,474.7,719.1,484.2z"/>
<path d="M682.6,523.8c-21.3,8.9-9-30.6-39.7-19.1c-7.9,5.6-4.2,25.9-19.7,19.6c4.4-21.1,14.2-41.1,20.4-61.9c2-10.5,14-7.2,17.4,0
	C668.5,482.6,675.3,503,682.6,523.8z M643.7,495c6.2,0,11.2,0,17.3,0c-2.6-8.2-5-15.5-7.3-22.8c-0.8,0-1.5,0.1-2.3,0.1
	C649,479.4,646.6,486.5,643.7,495z"/>
<path d="M804,496.2c0,9.9,0,17.9,0,28.3c-3.9,0.2-7,0.3-11.5,0.5c0-22.1-0.1-43.3,0.2-64.6c0-1.6,3.4-4.7,4.9-4.5
	c11.5,3.3,4.6,18.6,6.3,28.9c14.4-8,15.9-29.3,34-29.6c0.8,0.7,1.6,1.5,2.4,2.2c-30.5,39.8-27.8,26.8,1.5,65.8
	c-10.7,3.1-11.4,2.9-16.9-4.3c-6.1-7.9-12.3-15.8-18.4-23.6C805.7,495.6,804.9,495.9,804,496.2z"/>
<path d="M99.1,524.7c-4.7,0-7.7,0-12.2,0c0.7-17.1-1.4-34.1,0.4-50.9c1.1-6.4-7.7-18,8.3-18.4c25-0.7,34.2,2.7,35.5,20.3
	c1.1,13.8-7.7,23.8-21.3,23.5C93,498.1,100.7,513.9,99.1,524.7z M99.8,494c7.2-3.7,14.4-5.1,17.1-9.4c5.8-14.3-3-19.6-17.1-22.2
	C99.8,473.7,99.8,482.1,99.8,494z"/>
<path d="M171.7,493.4c0.1,9.8-0.3,13.9,0.6,23.1c9.1,0.5,18.2-2.5,25.4,4.1c-9.9,8.8-23.8,2.9-36.9,4.4c-1.3-20.8-0.2-40.8-0.7-61.5
	c-0.1-5.8,1.5-8.5,7.8-8.2c9.9,1.7,22.1-3.7,29.8,4.4c-6.8,7-15.7,3.2-25.1,4c0,6.8,0,13.1,0,21.1c8.1,0.7,17.7-2.9,23.7,4.4
	C189.5,496.4,181.3,492.7,171.7,493.4z"/>
<path d="M273.1,517.3c-2.3,2.3-4.3,6.3-6.9,6.7c-61.3,16.6-52.4-93.6,7.3-64.2c-0.3,6.4-2.8,8.2-9.5,6.1c-22-8.3-30.7,14.8-27,32.8
	c2,18.2,18.6,19.9,33.5,15.6C271.5,515.3,272.3,516.3,273.1,517.3z"/>
<path d="M313.3,463.8c-8.2-0.3-13.4,2.1-18.8-3.7c5.4-9,34.3-2.9,45.2-4.3c1.5,0,2.9,2.9,4.3,4.5c-4.9,5.8-10.9,2.9-18.6,3.5
	c0,20.6,0,40.5,0,60.7c-4.6,0-7.9,0-12.2,0C313.3,504.4,313.3,484.7,313.3,463.8z"/>
<path d="M396.4,65.2c28.7-4.1,60.6,12.5,67.9,33.5C442.5,83.8,422.7,74.1,396.4,65.2z"/>
<path d="M609.4,308c14.4,19.4-7.7,46.6-38.2,51.4C590.7,346.1,604.9,331.1,609.4,308z"/>
<path d="M265.6,380.5c-18.4,5-53.4,8.9-39.2-21.9c6.9,19.4,23.3,18.7,39.3,18.9C265.6,378.5,265.6,379.5,265.6,380.5z"/>
</svg>
